<?xml version="1.0" encoding="utf-8"?>
<!-- Generator: Adobe Illustrator 23.0.4, SVG Export Plug-In . SVG Version: 6.00 Build 0)  -->
<svg version="1.1" id="Layer_1" xmlns="http://www.w3.org/2000/svg" xmlns:xlink="http://www.w3.org/1999/xlink" x="0px" y="0px"
	 viewBox="0 0 340.03 59.45" style="enable-background:new 0 0 340.03 59.45;" xml:space="preserve">
<style type="text/css">
	.st0{fill:#007565;}
</style>
<g>
	<g>
		<path class="st0" d="M143.65,39.79v4.15h-3.41V0h3.53v19.45c2.67-2.85,6.33-4.4,10.23-4.4c3.41,0,6.64,1.24,8.99,3.16
			c3.23,2.73,5.27,6.88,5.27,11.6c0,5.09-2.29,9.49-6.02,12.09c-2.79,1.98-5.77,2.67-8.43,2.67
			C149.41,44.57,145.75,42.65,143.65,39.79z M143.77,35.02c2.23,3.84,5.95,6.2,10.11,6.2c2.42,0,4.59-0.87,6.39-2.11
			c2.73-1.92,4.47-5.4,4.47-9.3c0-3.66-1.49-6.95-3.97-8.99c-1.98-1.61-4.47-2.42-6.82-2.42c-5.21,0-8.93,3.6-10.17,5.71V35.02z"/>
		<path class="st0" d="M196.4,43.95v-4.15c-2.11,2.85-5.77,4.78-10.17,4.78c-2.67,0-5.64-0.68-8.43-2.67
			c-3.72-2.61-6.02-7.01-6.02-12.09c0-4.71,2.05-8.87,5.27-11.6c2.36-1.92,5.58-3.16,8.99-3.16c4.09,0,7.81,1.67,10.36,4.53v-3.91
			h3.41v28.28H196.4z M196.28,24.1c-1.24-2.11-4.96-5.71-10.17-5.71c-2.36,0-4.84,0.81-6.82,2.42c-2.48,2.05-3.97,5.33-3.97,8.99
			c0,3.91,1.74,7.38,4.47,9.3c1.8,1.24,3.97,2.11,6.39,2.11c4.16,0,7.88-2.36,10.11-6.2V24.1z"/>
		<path class="st0" d="M210.26,19.64c2.29-3.04,6.02-4.59,9.98-4.59c4.09,0,7.75,1.67,10.05,4.78c1.55,2.05,2.42,4.4,2.42,9.05
			v15.07h-3.53V29.13c0-3.72-0.62-5.52-1.61-6.95c-1.61-2.36-4.28-3.78-7.38-3.78c-4.09,0-7.63,2.17-9.8,5.89v19.66h-3.53V15.67
			h3.41V19.64z"/>
		<path class="st0" d="M257.99,43.95L243.27,29v14.95h-3.53V0h3.53v27.45l14.45-11.78h5.27l-15.5,12.71l15.47,15.57H257.99z"/>
		<path class="st0" d="M271.02,4.54c1.54,0,2.81,1.27,2.81,2.81c0,1.54-1.27,2.76-2.81,2.76c-1.54,0-2.76-1.21-2.76-2.76
			C268.27,5.81,269.48,4.54,271.02,4.54z M269.28,15.67h3.53v28.28h-3.53V15.67z"/>
		<path class="st0" d="M284.28,19.64c2.29-3.04,6.02-4.59,9.98-4.59c4.09,0,7.75,1.67,10.05,4.78c1.55,2.05,2.42,4.4,2.42,9.05
			v15.07h-3.53V29.13c0-3.72-0.62-5.52-1.61-6.95c-1.61-2.36-4.28-3.78-7.38-3.78c-4.09,0-7.63,2.17-9.8,5.89v19.66h-3.53V15.67
			h3.41V19.64z"/>
		<g>
			<path class="st0" d="M31.32,43.95h-7.75v-2.71c-2.48,2.11-5.33,3.33-8.37,3.33c-4.47,0-8.68-1.98-11.35-5.09
				C1.49,36.76,0,33.03,0,28.94c0-8.87,6.57-15.69,14.76-15.69c3.41,0,6.45,1.12,8.81,3.04v-2.11h7.75V43.95z M23.26,24.41
				c-1.67-2.23-4.34-3.72-7.44-3.72c-4.71,0-7.75,3.91-7.75,8.25c0,4.71,3.41,8.19,7.94,8.19c3.04,0,5.71-1.78,7.26-4.01V24.41z"/>
			<path class="st0" d="M38.35,43.95V0h8.06v16.04c2.36-1.86,5.21-2.79,8.5-2.79c8.19,0,14.76,6.82,14.76,15.69
				c0,4.09-1.49,7.81-3.85,10.54c-2.67,3.1-6.88,5.09-11.35,5.09c-3.04,0-5.89-1.22-8.37-3.33v2.71H38.35z M46.41,33.11
				c1.55,2.23,4.22,4.01,7.26,4.01c4.53,0,7.94-3.47,7.94-8.19c0-4.34-3.04-8.25-7.75-8.25c-3.1,0-5.77,1.49-7.44,3.72V33.11z"/>
			<path class="st0" d="M104.5,43.95h-7.75v-2.71c-2.48,2.11-5.33,3.33-8.37,3.33c-4.47,0-8.68-1.98-11.35-5.09
				c-2.36-2.73-3.84-6.45-3.84-10.54c0-8.87,6.57-15.69,14.76-15.69c3.41,0,6.45,1.12,8.81,3.04v-2.11h7.75V43.95z M96.44,24.41
				c-1.67-2.23-4.34-3.72-7.44-3.72c-4.71,0-7.75,3.91-7.75,8.25c0,4.71,3.41,8.19,7.94,8.19c3.04,0,5.71-1.78,7.26-4.01V24.41z"/>
			<path class="st0" d="M119.59,43.95h-8.06V0h8.06V43.95z"/>
		</g>
		<path class="st0" d="M336.62,15.67v3.91c-2.54-2.85-6.26-4.53-10.36-4.53c-3.41,0-6.64,1.24-8.99,3.16
			c-3.23,2.73-5.27,6.88-5.27,11.6c0,5.09,2.29,9.49,6.02,12.09c2.79,1.98,5.77,2.67,8.43,2.67c4.4,0,7.94-1.92,10.05-4.65v4.03
			c0,3.53-0.25,5.58-1.12,7.32c-1.43,2.79-4.34,4.84-9.12,4.84c-4.52,0-7.99-2.1-10.1-5.44l-2.47,2.47c2.87,4,7.3,6.32,12.51,6.32
			c6.2,0,10.23-2.67,12.28-6.51c1.18-2.23,1.55-4.96,1.55-9.12V15.67H336.62z M336.5,35.02c-2.23,3.84-5.95,6.2-10.11,6.2
			c-2.42,0-4.59-0.87-6.39-2.11c-2.73-1.92-4.47-5.4-4.47-9.3c0-3.66,1.49-6.95,3.97-8.99c1.98-1.61,4.47-2.42,6.82-2.42
			c5.21,0,8.93,3.6,10.17,5.71V35.02z"/>
	</g>
</g>
</svg>
