<svg id="logo--lumo" xmlns="http://www.w3.org/2000/svg" width="110" height="110" viewBox="0 0 110 110">
  <path id="Shape" d="M55,110a55,55,0,1,1,55-55A54.969,54.969,0,0,1,55,110Z" fill="#ed8b00"/>
  <path id="Shape-2" data-name="Shape" d="M77,36.4a3.623,3.623,0,0,1-3.8-3.6A3.583,3.583,0,0,1,77,29.2a4.124,4.124,0,0,1,2.8,1l-1.1,1.4a2.591,2.591,0,0,0-1.7-.7,1.811,1.811,0,0,0-1.8,1.9,1.838,1.838,0,0,0,1.9,1.9,1.8,1.8,0,0,0,1.1-.3v-.8H76.8V32.2H80v3.1A4.738,4.738,0,0,1,77,36.4Zm-24-.1H51.1v-7h1.8L55.7,33V29.3h2v7H56l-3-3.9v3.9Zm31.9,0H83V33.7l-2.6-4.4h2.2L84,31.8l1.4-2.5h2.2l-2.7,4.3v2.7ZM65,36.3H59.3v-7h5.6v1.6H61.2V32h3.4v1.5H61.2v1.1H65v1.7Zm-15.4,0H44v-7h5.6v1.6H45.9V32h3.3v1.5H45.9v1.1h3.7v1.7Zm18.7-.1H66.4V29.3h3.1a3.05,3.05,0,0,1,2.3.8,2.334,2.334,0,0,1-.8,3.7l1.7,2.4-2.2,0-1.4-2.1h-.8v2.1ZM68.1,31v1.6h1.3c.663,0,1-.269,1-.8,0-.494-.383-.8-1-.8Zm15.6-4.8A13.108,13.108,0,0,1,74.412,3.85,13.008,13.008,0,0,1,83.7,0a13.309,13.309,0,0,1,9.288,3.888A13.081,13.081,0,0,1,83.7,26.2Zm-53.6-1c-7,0-10.7-3.665-10.7-10.6V1.6h6.5V14.5c0,3.114,1.567,4.9,4.3,4.9,2.772,0,4.3-1.7,4.3-4.8V1.6H41V14.4c0,3.618-1,6.381-2.975,8.213C36.175,24.329,33.508,25.2,30.1,25.2Zm20.1-.4H43.9V1.6h6.8l5.5,9,5.5-9h6.8V24.8H62.1V11.5l-5.9,9.1h-.1l-5.9-9V24.8Zm-32.5,0H0V1.6H6.4V19.2H17.7v5.6Z" transform="translate(12.1 41.4)" fill="#fff"/>
</svg>
