<?xml version="1.0" encoding="UTF-8"?>
<svg xmlns="http://www.w3.org/2000/svg" width="130" height="142" viewBox="0 0 130 142" fill="none">
  <g clip-path="url(#clip0_939_12978)">
    <path d="M129.896 70.5689C129.896 77.4123 130.052 84.2644 129.827 91.0993C129.723 94.2359 129.101 97.3897 128.349 100.449C126.431 108.26 121.022 113.349 114.403 117.246C104.052 123.347 93.5618 129.222 83.1843 135.297C79.1577 137.656 75.0101 139.626 70.4565 140.689C64.6931 142.036 59.1544 141.06 53.9786 138.58C47.9905 135.711 42.1839 132.454 36.3946 129.205C29.2747 125.213 22.2152 121.1 15.1903 116.935C6.58408 111.837 1.26138 104.466 0.613321 94.305C0.172643 87.4356 0.13808 80.5403 0.0516725 73.6622C-0.034735 67.2335 0.0257502 60.7962 0.0516725 54.3588C0.068954 49.7965 0.630602 45.2947 1.76254 40.8706C3.55117 33.9148 8.02708 28.8686 13.9287 25.3C25.5505 18.2924 37.3451 11.5353 49.2175 4.95104C52.6565 3.04144 56.5449 1.80581 60.3554 0.717075C65.5399 -0.760492 70.6984 0.164068 75.5459 2.25513C79.0626 3.7759 82.4412 5.67686 85.7765 7.58647C95.4109 13.1079 105.045 18.6207 114.55 24.3495C117.428 26.0863 120.011 28.3934 122.5 30.6918C127.261 35.09 129.516 40.862 129.818 47.1438C130.199 54.9291 129.905 62.749 129.905 70.5602" fill="#0C1212"></path>
    <mask id="mask0_939_12978" style="mask-type:luminance" maskUnits="userSpaceOnUse" x="10" y="50" width="118" height="36">
      <path d="M127.511 50.8508H10.896V85.8372H127.511V50.8508Z" fill="white"></path>
    </mask>
    <g mask="url(#mask0_939_12978)">
      <path d="M28.2641 60.7791C22.6303 60.7791 18.3877 64.797 18.3877 70.137V71.2948C18.3877 72.6946 19.5196 73.8266 20.9194 73.8266C22.3192 73.8266 23.4512 72.6946 23.4512 71.2948V70.137C23.4512 68.0718 24.9547 65.8425 28.2641 65.8425C31.5735 65.8425 33.077 68.0718 33.077 70.137V80.3158C33.077 81.7156 34.2089 82.8475 35.6087 82.8475C37.0085 82.8475 38.1404 81.7156 38.1404 80.3158V70.137C38.1404 64.8056 33.8978 60.7791 28.2641 60.7791Z" fill="white"></path>
      <path d="M72.2194 60.7876C76.4707 60.7876 78.916 62.9132 79.7455 63.976C80.117 64.4858 80.2553 64.8574 80.2553 65.4104C80.2553 66.6547 79.2875 67.6311 78.0346 67.6311C77.2915 67.6311 76.7385 67.3114 76.3238 66.8448C75.7189 66.1967 74.5178 65.0388 72.2108 65.0388C68.9791 65.0388 67.2164 67.536 67.2164 71.8823C67.2164 76.2286 68.9705 78.769 72.2108 78.769C74.3364 78.769 75.7189 77.7062 76.7817 76.9199C77.2915 76.5483 77.7063 76.4533 78.1642 76.4533C79.4171 76.4533 80.3849 77.421 80.3849 78.6739C80.3849 79.322 80.1516 79.875 79.5986 80.3848C78.5358 81.3526 75.9954 83.0202 72.2108 83.0202C65.9289 83.0202 62.1875 79.417 62.1875 71.8823C62.1875 64.3476 65.9289 60.7876 72.2108 60.7876" fill="white"></path>
      <path d="M45.6062 69.5234H54.7568C54.7568 67.2595 53.4607 65.0388 50.4623 65.0388C47.7837 65.0388 45.8395 66.5596 45.6062 69.5234ZM50.4623 60.7876C58.2736 60.7876 59.6993 66.7929 59.6993 69.9813C59.6993 71.6922 59.6993 73.6796 56.8824 73.6796H45.468C45.468 77.0063 47.8269 78.5357 50.8771 78.5357C52.9077 78.5357 54.342 77.8444 55.448 77.1013C55.9578 76.7816 56.3208 76.5915 56.9256 76.5915C58.1267 76.5915 59.0944 77.5593 59.0944 78.769C59.0944 79.5035 58.7229 80.1083 58.3081 80.4799C57.5218 81.2143 55.0765 83.0202 50.8684 83.0202C44.4484 83.0202 40.4736 79.5553 40.4736 71.8391C40.4736 64.771 44.1719 60.7962 50.4537 60.7962" fill="white"></path>
    </g>
    <mask id="mask1_939_12978" style="mask-type:luminance" maskUnits="userSpaceOnUse" x="18" y="52" width="98" height="34">
      <path d="M115.104 52.4753H18.3877V85.8373H115.104V52.4753Z" fill="white"></path>
    </mask>
    <g mask="url(#mask1_939_12978)">
      <path d="M91.5229 78.6742H89.5441C88.7146 78.6742 87.7901 78.078 87.7901 77.0065V65.7735H91.2032C92.5857 65.7735 93.7003 64.6675 93.7003 63.2764C93.7003 61.8852 92.5943 60.7792 91.2032 60.7792H87.7901V54.9121C87.7901 53.5728 86.6841 52.4668 85.3447 52.4668C84.0054 52.4668 82.8994 53.5728 82.8994 54.9121V76.7214C82.8994 80.3764 85.4398 83.0032 89.5528 83.0032H91.5315C92.7326 83.0032 93.7003 82.0354 93.7003 80.8344C93.7003 79.6333 92.7326 78.6655 91.5315 78.6655" fill="white"></path>
      <path d="M114.861 66.1968C113.375 62.9825 110.135 60.9346 106.342 60.7705C106.247 60.7618 106.152 60.7532 106.057 60.7532C106.013 60.7532 105.97 60.7532 105.918 60.7532C105.884 60.7532 105.858 60.7532 105.823 60.7532C105.763 60.7532 105.702 60.7532 105.642 60.7618C100.224 60.9519 96.1802 64.9094 96.1802 70.1025V80.2813C96.1802 81.6811 97.3121 82.813 98.7119 82.813C100.112 82.813 101.244 81.6811 101.244 80.2813V70.1025C101.244 68.0632 102.713 65.8685 105.927 65.8167C107.906 65.8512 109.565 66.8017 110.273 68.3225C110.697 69.247 111.613 69.7914 112.572 69.7914C112.926 69.7914 113.289 69.7136 113.634 69.5581C114.905 68.9705 115.458 67.467 114.87 66.1968" fill="white"></path>
    </g>
    <mask id="mask2_939_12978" style="mask-type:luminance" maskUnits="userSpaceOnUse" x="10" y="50" width="118" height="36">
      <path d="M127.511 50.8508H10.896V85.8372H127.511V50.8508Z" fill="white"></path>
    </mask>
    <g mask="url(#mask2_939_12978)">
      <path d="M23.4424 80.3157C23.4424 81.7155 22.3104 82.8474 20.9106 82.8474C19.5108 82.8474 18.3789 81.7155 18.3789 80.3157C18.3789 78.9159 19.5108 77.7839 20.9106 77.7839C22.3104 77.7839 23.4424 78.9159 23.4424 80.3157Z" fill="#F37322"></path>
    </g>
  </g>
  <defs>
    <clipPath id="clip0_939_12978">
      <rect width="130" height="141.293" fill="white"></rect>
    </clipPath>
  </defs>
</svg>
