<svg id="Layer_1" data-name="Layer 1" xmlns="http://www.w3.org/2000/svg" xmlns:xlink="http://www.w3.org/1999/xlink" viewBox="0 0 635.73 603.78"><defs><style>.cls-1{fill:url(#linear-gradient);}.cls-2{fill:url(#linear-gradient-2);}.cls-3{fill:url(#linear-gradient-3);}.cls-4{fill:url(#linear-gradient-4);}.cls-5{fill:url(#linear-gradient-5);}</style><linearGradient id="linear-gradient" x1="-37.47" y1="332.4" x2="241.35" y2="332.4" gradientTransform="matrix(-0.63, -0.78, 0.78, -0.63, -49.76, 516.5)" gradientUnits="userSpaceOnUse"><stop offset="0" stop-color="#4ce9f2"/><stop offset="0.6" stop-color="#00dfed"/><stop offset="0.64" stop-color="#00d6ea"/><stop offset="0.71" stop-color="#00bee3"/><stop offset="0.79" stop-color="#0096d6"/><stop offset="0.89" stop-color="#005fc5"/><stop offset="1" stop-color="#001cb0"/></linearGradient><linearGradient id="linear-gradient-2" x1="-106.02" y1="397.51" x2="112.66" y2="397.51" gradientTransform="translate(46.06 825) rotate(-170.53)" xlink:href="#linear-gradient"/><linearGradient id="linear-gradient-3" x1="262.16" y1="24.78" x2="540.98" y2="24.78" gradientTransform="translate(304.91 540.4) rotate(-96.63)" xlink:href="#linear-gradient"/><linearGradient id="linear-gradient-4" x1="342.3" y1="29.21" x2="575.68" y2="29.21" gradientTransform="translate(232.51 590.85) rotate(-69.95)" xlink:href="#linear-gradient"/><linearGradient id="linear-gradient-5" x1="266.42" y1="105.97" x2="425.54" y2="105.97" gradientTransform="translate(196.51 441.52) rotate(-47.81)" xlink:href="#linear-gradient"/></defs><path d="M363.52,380.08a105.89,105.89,0,0,0-30.13,4.05A101.75,101.75,0,0,0,311,393.37l-.63.38,4.1,12.69,1-.55a95.86,95.86,0,0,1,20.83-8.26,104.15,104.15,0,0,1,27.21-3.18c13.18,0,23.4,3.06,30.37,9.09s10.44,16.67,10.44,31.72v10h-37c-22.57,0-39.93,4.28-51.59,12.7s-17.72,21.38-17.72,38.31a48.35,48.35,0,0,0,3.77,19.64,41.25,41.25,0,0,0,10.51,14.45,44.51,44.51,0,0,0,15.9,8.85,63.67,63.67,0,0,0,19.55,2.94c13.37,0,25.09-3,34.82-8.8A64.11,64.11,0,0,0,404.68,511l3.61,28.58h12.33V435.26c0-16.86-4.78-30.41-14.22-40.29S382.52,380.08,363.52,380.08Zm40.81,79.55V476a48.45,48.45,0,0,1-3.78,18.59,53.14,53.14,0,0,1-28.42,28.56,59.35,59.35,0,0,1-24,4.58,46,46,0,0,1-13.22-1.89A30.37,30.37,0,0,1,324,520.11a26.73,26.73,0,0,1-7.3-9.78A34.47,34.47,0,0,1,314,496.26c0-12.68,4.13-22,12.29-27.81s22.07-8.82,41-8.82Z"/><path d="M563.91,411.26a74.9,74.9,0,0,0-6.9-9.35,65.26,65.26,0,0,0-27.85-18.73,58.94,58.94,0,0,0-19.57-3.1,59.83,59.83,0,0,0-25.11,5.38,60.53,60.53,0,0,0-20.7,15.81,77.77,77.77,0,0,0-14.14,25.34c-3.44,9.9-5.19,21.34-5.19,34,0,14.38,1.69,26.85,5,37.05s8,18.78,14,25.37a53.42,53.42,0,0,0,21.23,14.53,75.54,75.54,0,0,0,26.49,4.56c12.33,0,23.14-3.08,32.14-9.15a68.77,68.77,0,0,0,20.23-21.42v19.69c0,10.54-1.23,19.62-3.65,27s-5.79,13.3-10.06,17.79a37.27,37.27,0,0,1-15.51,9.71,66.15,66.15,0,0,1-20.59,3,102.93,102.93,0,0,1-27.52-3.5A107.07,107.07,0,0,1,464.76,577l-1-.53-4.43,13.67.68.37a129.77,129.77,0,0,0,22.8,9.06,104.07,104.07,0,0,0,30.29,4.21c20.92,0,37.5-6,49.3-17.93s17.77-30.16,17.77-54.27V382.65H567.53Zm-.34,19.12v40.2a65.77,65.77,0,0,1-3.33,20.58,57.51,57.51,0,0,1-9.79,18.17,47.46,47.46,0,0,1-38.29,17.79,54.53,54.53,0,0,1-19.1-3.47,41.26,41.26,0,0,1-16.33-11.31c-4.71-5.23-8.54-12.14-11.37-20.55s-4.29-18.9-4.29-31.16c0-11.2,1.39-21,4.13-29.25A60.11,60.11,0,0,1,476.26,411a44.79,44.79,0,0,1,15.88-12,47.24,47.24,0,0,1,19.06-3.94,49.47,49.47,0,0,1,29.63,9.62A84.4,84.4,0,0,1,563.57,430.38Z"/><rect x="619.11" y="321.33" width="16.62" height="218.24"/><path class="cls-1" d="M58.48,120.25a26.3,26.3,0,0,1,36.87,4L237,300.86a26.31,26.31,0,0,1-4,36.87h0a26.31,26.31,0,0,1-36.87-4.05L54.44,157.12a26.3,26.3,0,0,1,4-36.87Z"/><path class="cls-2" d="M.36,414.37a26.3,26.3,0,0,1,30.18-21.55l164,27.36a26.3,26.3,0,0,1,21.55,30.18h0a26.3,26.3,0,0,1-30.19,21.55l-164-27.35A26.3,26.3,0,0,1,.36,414.37Z"/><path class="cls-3" d="M267.1.18a26.29,26.29,0,0,1,29.08,23L322.3,248.06a26.31,26.31,0,0,1-23,29.08h0a26.3,26.3,0,0,1-29.07-23L244.08,29.25A26.29,26.29,0,0,1,267.1.18Z"/><path class="cls-4" d="M457.31,60.08A26.3,26.3,0,0,1,473,93.7l-62,170a26.29,26.29,0,0,1-33.62,15.64h0a26.28,26.28,0,0,1-15.65-33.62l62-170a26.3,26.3,0,0,1,33.63-15.64Z"/><path class="cls-5" d="M560.82,197.41a26.3,26.3,0,0,1,1.82,37.05l-71.64,79A26.31,26.31,0,0,1,454,315.3h0a26.3,26.3,0,0,1-1.82-37l71.65-79a26.29,26.29,0,0,1,37-1.82Z"/></svg>