<?xml version="1.0" encoding="UTF-8"?>
<!DOCTYPE svg PUBLIC "-//W3C//DTD SVG 1.1//EN" "http://www.w3.org/Graphics/SVG/1.1/DTD/svg11.dtd">
<svg xmlns="http://www.w3.org/2000/svg" xml:space="preserve" width="264px" height="86px" version="1.1" style="shape-rendering:geometricPrecision; text-rendering:geometricPrecision; image-rendering:optimizeQuality; fill-rule:evenodd; clip-rule:evenodd"
viewBox="0 0 264 85.556"
 xmlns:xlink="http://www.w3.org/1999/xlink"
 xmlns:xodm="http://www.corel.com/coreldraw/odm/2003">
 <defs>
  <style type="text/css">
   <![CDATA[
    .fil0 {fill:#6B288A}
    .fil1 {fill:#F68B33}
    .fil2 {fill:#6B288A;fill-rule:nonzero}
    .fil3 {fill:#F68B33;fill-rule:nonzero}
   ]]>
  </style>
 </defs>
 <g id="Layer_x0020_1">
  <metadata id="CorelCorpID_0Corel-Layer"/>
  <g id="_2439107599632">
   <path class="fil0" d="M23.856 38.55l0 -21.721 -15.357 10.166 0 11.555 15.357 0zm8.509 47.006l-8.509 -5.617 0 -32.87 -15.357 0 0 22.729 -8.499 -5.612 0 -42.791 32.365 -21.395 0 85.556z"/>
   <path class="fil1" d="M32.95 0l32.437 21.395 0 42.791 -32.437 21.37 0 -85.556zm23.955 38.55l0 -11.555 -15.457 -10.166 0 21.721 15.457 0zm-15.457 8.519l0 21.723 15.457 -10.207 0 -11.516 -15.457 0z"/>
   <path class="fil2" d="M246.296 26.079l17.614 0 0 3.737 -12.84 0 0 2.297 12.187 0 0 3.496 -12.187 0 0 2.549 12.93 0 0 3.82 -17.704 0 0 -15.899zm-23.937 11.844l6.745 0c1.245,0 2.158,-0.04 2.742,-0.124 0.589,-0.079 1.003,-0.221 1.242,-0.424 0.266,-0.222 0.454,-0.581 0.56,-1.07 0.108,-0.489 0.164,-1.229 0.164,-2.215 0,-0.986 -0.048,-1.724 -0.14,-2.221 -0.095,-0.497 -0.259,-0.878 -0.489,-1.142 -0.268,-0.285 -0.648,-0.473 -1.15,-0.552 -0.5,-0.084 -1.489,-0.122 -2.972,-0.122l-6.702 0 0 7.87zm-4.774 4.055l0 -15.899 11.476 0c2.03,0 3.363,0.016 3.99,0.047 0.633,0.032 1.289,0.116 1.972,0.254 1.591,0.327 2.629,1.229 3.11,2.706 0.178,0.556 0.297,1.156 0.362,1.797 0.059,0.643 0.091,1.61 0.091,2.906 0,1.422 -0.035,2.495 -0.112,3.228 -0.071,0.733 -0.209,1.395 -0.412,1.992 -0.474,1.395 -1.448,2.258 -2.923,2.585 -0.693,0.154 -1.432,0.257 -2.215,0.31 -0.783,0.052 -2.067,0.074 -3.854,0.074l-11.485 0 0 0zm-13.113 -15.899l5.088 0 0 15.899 -5.088 0 0 -15.899zm-40.103 0l4.938 0 4.262 11.904 0.897 0 3.6 -11.904 5.849 0 3.621 11.904 0.91 0 4.287 -11.904 5.138 0 -6.187 15.899 -7.48 0 -3.193 -11.66 -3.156 11.66 -7.498 0 -5.988 -15.899 0 0zm-25.368 10.636l4.693 0c-0.008,0.784 0.15,1.289 0.476,1.516 0.235,0.144 0.538,0.234 0.903,0.262 0.372,0.025 1.536,0.046 3.492,0.062 2.046,-0.006 3.28,-0.019 3.688,-0.04 0.414,-0.019 0.74,-0.078 0.978,-0.182 0.359,-0.148 0.538,-0.545 0.538,-1.201 0,-0.473 -0.129,-0.787 -0.378,-0.946 -0.254,-0.159 -0.768,-0.246 -1.543,-0.262 -0.6,0 -1.866,-0.048 -3.797,-0.141 -1.979,-0.094 -3.269,-0.15 -3.869,-0.162 -1.163,-0.04 -2.059,-0.151 -2.684,-0.333 -0.622,-0.183 -1.112,-0.482 -1.458,-0.892 -0.6,-0.682 -0.899,-1.825 -0.899,-3.427 0,-1.793 0.342,-3.058 1.026,-3.796 0.521,-0.577 1.32,-0.943 2.398,-1.101 1.081,-0.16 3.275,-0.239 6.584,-0.239 2.337,0 3.979,0.066 4.925,0.198 1.459,0.203 2.461,0.608 3.007,1.218 0.543,0.611 0.814,1.637 0.814,3.08 0,0.135 -0.004,0.383 -0.012,0.748l-4.695 0c-0.016,-0.445 -0.051,-0.748 -0.111,-0.91 -0.056,-0.163 -0.17,-0.296 -0.343,-0.398 -0.21,-0.124 -0.579,-0.204 -1.105,-0.24 -0.529,-0.035 -1.647,-0.051 -3.357,-0.051 -2.058,0 -3.31,0.064 -3.76,0.192 -0.449,0.13 -0.676,0.484 -0.676,1.065 0,0.561 0.227,0.902 0.676,1.026 0.375,0.103 2.084,0.199 5.139,0.294 2.567,0.076 4.285,0.168 5.151,0.271 0.867,0.106 1.555,0.305 2.068,0.6 0.579,0.349 0.994,0.831 1.234,1.439 0.241,0.611 0.36,1.488 0.36,2.629 0,1.499 -0.202,2.615 -0.605,3.344 -0.302,0.535 -0.723,0.937 -1.264,1.2 -0.541,0.262 -1.3,0.44 -2.278,0.536 -1.048,0.092 -3.001,0.139 -5.857,0.139 -2.393,0 -4.158,-0.064 -5.298,-0.187 -1.142,-0.122 -2.001,-0.345 -2.579,-0.664 -0.596,-0.342 -1.008,-0.791 -1.24,-1.351 -0.225,-0.557 -0.342,-1.407 -0.342,-2.553l0 -0.743zm-28.057 -10.636l4.847 0 0 7.303c0.022,1.68 0.083,2.741 0.174,3.182 0.124,0.619 0.525,1.029 1.204,1.224 0.681,0.195 2.051,0.29 4.115,0.29 1.678,0 2.844,-0.047 3.49,-0.147 0.648,-0.095 1.107,-0.286 1.381,-0.577 0.178,-0.201 0.302,-0.444 0.378,-0.73 0.072,-0.292 0.132,-0.784 0.167,-1.483 0.04,-0.712 0.06,-1.3 0.06,-1.759l0 -7.303 4.846 0 0 7.303c-0.056,2.542 -0.135,4.204 -0.246,4.987 -0.192,1.335 -0.827,2.315 -1.91,2.934 -0.61,0.358 -1.478,0.601 -2.595,0.723 -1.119,0.123 -2.954,0.187 -5.511,0.187 -1.916,0 -3.396,-0.035 -4.435,-0.103 -1.043,-0.07 -1.946,-0.194 -2.719,-0.375 -1.697,-0.405 -2.691,-1.431 -2.98,-3.077 -0.108,-0.627 -0.176,-1.2 -0.205,-1.71 -0.027,-0.511 -0.046,-1.702 -0.061,-3.566l0 -7.303zm-14.588 9.726l-3.066 -6.021 -0.967 0 -3.065 6.021 7.098 0 0 0zm3.061 6.173l-1.364 -2.691 -10.516 0 -1.365 2.691 -5.533 0 8.432 -15.899 7.527 0 8.317 15.899 -5.498 0 0 0z"/>
   <path class="fil3" d="M135.947 57.309c1.796,-0.015 1.796,-0.015 2.022,-0.105 0.271,-0.107 0.393,-0.333 0.393,-0.77 0,-0.452 -0.136,-0.664 -0.453,-0.754 -0.166,-0.046 -0.166,-0.046 -1.962,-0.046l-4.33 0 0 1.675 4.33 0zm-0.014 -3.682c1.041,0 1.493,-0.03 1.689,-0.105 0.242,-0.09 0.363,-0.347 0.363,-0.725 0,-0.406 -0.137,-0.633 -0.437,-0.709 -0.167,-0.045 -0.197,-0.045 -1.615,-0.059l-4.316 0 0 1.598 4.316 0zm-7.228 -3.967l7.228 0c3.334,0.015 3.439,0.015 3.998,0.286 0.74,0.347 1.025,1.01 1.025,2.339 0,1.433 -0.346,2.022 -1.358,2.308 1.329,0.226 1.736,0.815 1.736,2.429 0,1.403 -0.362,2.128 -1.208,2.46 -0.346,0.12 -0.92,0.196 -1.824,0.226 -0.121,0 -0.906,0 -2.355,0.015l-7.242 0 0 -10.063z"/>
   <path class="fil3" d="M159.229 51.998l-0.602 0 -1.947 3.817 4.496 0 -1.947 -3.817zm3.018 6.02l-6.654 0 -0.859 1.705 -3.501 0 5.326 -10.063 4.768 0 5.266 10.063 -3.485 0 -0.861 -1.705z"/>
   <polygon class="fil3" points="182.211,49.66 187.475,57.159 187.793,57.159 187.717,49.66 190.84,49.66 190.84,59.723 185.514,59.723 180.218,52.224 179.887,52.224 179.961,59.723 176.838,59.723 176.838,49.66 "/>
   <polygon class="fil3" points="205.1,49.66 205.1,53.311 206.775,53.311 210.758,49.599 215.451,49.599 209.627,54.593 215.933,59.723 211.286,59.723 206.775,55.875 205.1,55.875 205.1,59.723 202.037,59.723 202.037,49.66 "/>
   <polygon class="fil1" points="80.639,54.167 120.228,54.167 120.228,54.935 80.639,54.935 "/>
   <polygon class="fil1" points="224.411,54.167 264,54.167 264,54.935 224.411,54.935 "/>
  </g>
 </g>
</svg>
