<?xml version="1.0" encoding="UTF-8"?><svg id="Layer_2" xmlns="http://www.w3.org/2000/svg" viewBox="0 0 213.64 76.59"><defs><style>.cls-1{fill:#480b68;}</style></defs><g id="Layer_2-2"><path class="cls-1" d="m79.55,63.77c-6.77,0-12.51-5.7-12.51-12.82s5.56-12.82,12.51-12.82,12.51,5.7,12.51,12.82c-.17,7.13-5.73,12.82-12.51,12.82m0-38.29c-13.72,0-24.84,11.4-24.84,25.47s11.12,25.47,24.84,25.47,24.84-11.4,24.84-25.47-11.12-25.47-24.84-25.47"/><path class="cls-1" d="m24.84,63.76c-6.77,0-12.51-5.7-12.51-12.82s5.56-12.82,12.51-12.82,12.51,5.7,12.51,12.82-5.56,12.82-12.51,12.82m12.51-50.94v16.21c-3.65-2.14-7.82-3.38-12.51-3.38C11.12,25.65,0,37.05,0,51.12s11.12,25.47,24.84,25.47c13.72-.18,24.84-11.58,24.84-25.65V0c-6.77,0-12.33,5.7-12.33,12.82"/><path class="cls-1" d="m134.09,63.76c-6.77,0-12.5-5.7-12.5-12.82s5.56-12.82,12.5-12.82,12.51,5.7,12.51,12.82-5.56,12.82-12.51,12.82m12.51-50.94v16.21c-3.65-2.14-7.82-3.38-12.51-3.38-13.72,0-24.84,11.4-24.84,25.47s11.12,25.47,24.84,25.47,24.84-11.4,24.84-25.47V0c-6.77,0-12.33,5.7-12.33,12.82"/><path class="cls-1" d="m188.8,63.77c-6.77,0-12.51-5.7-12.51-12.82s5.56-12.82,12.51-12.82,12.51,5.7,12.51,12.82-5.56,12.82-12.51,12.82m0-38.29c-13.72,0-24.84,11.4-24.84,25.47s11.12,25.47,24.84,25.47,24.84-11.4,24.84-25.47-11.12-25.47-24.84-25.47"/></g></svg>