<?xml version="1.0" encoding="utf-8"?>
<!-- Generator: Adobe Illustrator 26.0.1, SVG Export Plug-In . SVG Version: 6.00 Build 0)  -->
<svg version="1.1" id="energy-locals" xmlns="http://www.w3.org/2000/svg" xmlns:xlink="http://www.w3.org/1999/xlink" x="0px"
	 y="0px" viewBox="0 0 260 63" style="enable-background:new 0 0 260 63;" xml:space="preserve">
<style type="text/css">
	.st0{fill:#373737;}
	.st1{fill:#D91F4E;}
	.st2{fill:#F16723;}
	.st3{fill:#FCB415;}
</style>
<g>
	<path class="st0" d="M88.6,41.7v0.4c0,0.5-0.3,0.8-0.8,0.8h-12c-0.5,0-0.8-0.3-0.8-0.8V20.7c0-0.5,0.3-0.8,0.8-0.8h11.4
		c0.5,0,0.8,0.3,0.8,0.8v0.4c0,0.5-0.3,0.8-0.8,0.8h-9.9v8.4h7.9c0.5,0,0.8,0.3,0.8,0.8v0.4c0,0.5-0.3,0.8-0.8,0.8h-7.9v8.6h10.5
		C88.3,40.9,88.6,41.2,88.6,41.7z M100.8,26c-3.9,0-6,2.8-6.7,4.3h-0.1c0,0,0.1-0.5,0.1-1.2v-1.9c0-0.5-0.3-0.8-0.8-0.8h-0.6
		c-0.5,0-0.8,0.3-0.8,0.8v14.9c0,0.5,0.3,0.8,0.8,0.8h0.6c0.5,0,0.8-0.3,0.8-0.8v-7.2c0-3.8,2.8-6.7,6.3-6.7c3.2,0,3.6,2.3,3.6,4.9
		v9.1c0,0.5,0.3,0.8,0.8,0.8h0.6c0.5,0,0.8-0.3,0.8-0.8v-9.7C106.3,28.3,104.9,26,100.8,26z M124.1,33.9c0,0.5-0.4,0.8-0.9,0.8
		h-11.9c0.1,4.2,3,6.6,6.4,6.6c2.1,0,3.6-0.9,4.3-1.5c0.5-0.3,0.8-0.2,1.1,0.2l0.3,0.4c0.2,0.4,0.2,0.8-0.2,1.1
		c-0.9,0.7-2.9,1.8-5.5,1.8c-4.9,0-8.6-3.5-8.6-8.6c0-5.4,3.7-8.7,8.1-8.7C121.6,26,124.1,29.2,124.1,33.9z M121.8,33
		c-0.1-3.5-2.2-5.2-4.7-5.2c-2.8,0-5.2,1.8-5.7,5.2H121.8z M135.1,26.3c-2.6,0-4.5,2.1-5.3,4.5h-0.1c0,0,0.1-0.6,0.1-1.3v-2.2
		c0-0.5-0.3-0.8-0.8-0.8h-0.6c-0.5,0-0.8,0.3-0.8,0.8v14.9c0,0.5,0.3,0.8,0.8,0.8h0.6c0.5,0,0.8-0.3,0.8-0.8v-6.2
		c0-3.4,1.7-7.4,5.2-7.4c0.6,0,0.9-0.3,0.9-0.8v-0.6C136,26.6,135.7,26.3,135.1,26.3z M151.2,27.2v15.3c0,5.2-3.9,7.3-7.8,7.3
		c-1.7,0-3.4-0.4-4.8-1c-0.5-0.2-0.6-0.6-0.4-1l0.2-0.5c0.2-0.4,0.5-0.6,1-0.4c0.7,0.3,2,0.9,3.8,0.9c3.1,0,5.7-1.5,5.7-5.2v-1.7
		c0-0.6,0.1-1.2,0.1-1.2H149c-1,1.9-2.7,3.1-5.2,3.1c-4.4,0-7.3-3.5-7.3-8.6c0-4.9,2.7-8.2,7.3-8.2c4.3,0,5.4,3,5.4,3h0.1
		c0,0-0.1-0.2-0.1-0.6v-1.3c0-0.4,0.3-0.7,0.8-0.7h0.5C150.9,26.4,151.2,26.7,151.2,27.2z M149,34.4c0-4.9-2.4-6.4-5.1-6.4
		c-3.3,0-5.2,2.4-5.2,6.2c0,4.1,2.1,6.6,5.4,6.6C146.7,40.8,149,39.2,149,34.4z M167.6,26.4h-0.7c-0.5,0-0.8,0.2-0.9,0.7l-4.5,11.4
		c-0.3,0.8-0.6,1.7-0.6,1.7h-0.1c0,0-0.3-0.9-0.6-1.7L155.6,27c-0.2-0.4-0.4-0.6-0.9-0.6h-0.8c-0.6,0-0.9,0.4-0.6,1l6.5,15.4l-1,2.3
		c-0.6,1.4-1.6,2.7-3.1,2.7c-0.6,0-1.1-0.3-1.4-0.4c-0.4-0.1-0.8,0-1,0.4l-0.2,0.4c-0.2,0.4-0.1,0.9,0.4,1c0.5,0.3,1.3,0.6,2.3,0.6
		c2.2,0,3.9-1.4,4.8-3.5l7.8-18.9C168.5,26.8,168.2,26.4,167.6,26.4z M183.4,39.3h-8.7V21c0-0.9-0.5-1.4-1.3-1.4h-1.5
		c-0.9,0-1.3,0.5-1.3,1.4v20.5c0,0.9,0.5,1.4,1.3,1.4h11.5c0.9,0,1.4-0.5,1.4-1.4v-0.9C184.8,39.7,184.4,39.3,183.4,39.3z
		 M203.4,34.5c0,5.2-4.1,8.8-9.2,8.8c-5.1,0-9.2-3.6-9.2-8.8c0-5.1,4.1-8.8,9.2-8.8C199.3,25.8,203.4,29.4,203.4,34.5z M199.2,34.5
		c0-3.1-2.3-5.2-5-5.2c-2.7,0-5,2.1-5,5.2c0,3.1,2.2,5.2,5,5.2C196.9,39.8,199.2,37.7,199.2,34.5z M219.8,38.9
		c-0.4-0.8-1-0.9-1.9-0.4c-0.8,0.6-2.1,1.3-3.7,1.3c-3.2,0-5.2-2.4-5.2-5.2c0-2.9,2-5.2,5.1-5.2c1.4,0,2.6,0.6,3.2,1
		c0.8,0.4,1.3,0.4,1.8-0.4l0.4-0.7c0.5-0.7,0.4-1.4-0.3-1.9c-1-0.7-2.8-1.7-5.5-1.7c-5.5,0-9.1,4-9.1,8.8c0,4.9,3.5,8.8,9.1,8.8
		c2.9,0,4.9-1.2,5.9-1.9c0.7-0.5,0.8-1.1,0.4-1.8L219.8,38.9z M236.6,32.4v9.1c0,0.9-0.5,1.4-1.4,1.4h-1.1c-0.9,0-1.3-0.5-1.3-1.4
		v-0.7c0-0.5,0.1-0.7,0.1-0.7h-0.1c0,0-1.6,3.1-5.2,3.1c-3.1,0-5.5-2-5.5-5c0-4.9,6-5.7,9.8-5.7h0.7v-0.4c0-2.2-1.4-3-3.1-3
		c-1.4,0-2.7,0.5-3.5,1c-0.8,0.4-1.4,0.2-1.8-0.6l-0.3-0.6c-0.4-0.8-0.3-1.4,0.5-1.8c1.1-0.6,3-1.4,5.5-1.4
		C234,25.8,236.6,28.2,236.6,32.4z M232.4,35.1h-0.7c-2.1,0-5.7,0.3-5.7,2.8c0,1.1,0.9,2.2,2.5,2.2c2.3,0,3.8-2.4,3.8-4.4V35.1z
		 M244.6,39.4c-0.6-0.1-1.3-0.4-1.3-2V21c0-0.9-0.5-1.4-1.3-1.4h-1.4c-0.9,0-1.3,0.5-1.3,1.4v16.7c0,4.8,2.9,5.4,5.1,5.4
		c1,0,1.4-0.6,1.4-1.4v-1.1C245.7,39.8,245.2,39.4,244.6,39.4z M251.7,30.8c0-1,0.8-1.6,2.3-1.6c1.4,0,2.5,0.5,3.2,0.8
		c0.8,0.4,1.4,0.3,1.8-0.5l0.3-0.6c0.4-0.8,0.3-1.4-0.5-1.8c-0.9-0.5-2.4-1.2-4.7-1.2c-3.5,0-6.4,1.7-6.4,5c0,5.7,8.3,4.7,8.3,7.4
		c0,1-0.9,1.7-2.3,1.7c-1.7,0-3-0.7-3.7-1.1c-0.8-0.4-1.4-0.4-1.9,0.3l-0.4,0.6c-0.5,0.7-0.4,1.4,0.3,1.9c1,0.7,2.9,1.7,5.6,1.7
		c3.9,0,6.4-2.2,6.4-5.1C260,32.4,251.7,33.5,251.7,30.8z"/>
	<path class="st1" d="M37.4,48.4c-3-2.6-3.4-7.2-0.7-10.2c2.6-3,7.2-3.4,10.2-0.7c3,2.6,3.4,7.2,0.7,10.2C45,50.7,40.5,51,37.4,48.4
		"/>
	<path class="st2" d="M49.2,11.2c2.6-3,7.1-3.3,10.1-0.7c3,2.6,3.3,7.1,0.7,10.1c-2.6,3-7.1,3.3-10.1,0.7
		C47,18.7,46.6,14.2,49.2,11.2z M50.4,24c-6.4-2.6-13.5-1.5-18.7,3c-2.1,1.8-2.3,5-0.5,7c1.8,2.1,5,2.3,7,0.5c2.3-2,5.6-2.5,8.4-1.4
		c2.9,1.2,4.8,4,5,7.1c0.1,2.7,2.4,4.8,5.1,4.8c0,0,0.1,0,0.1,0c2.8-0.1,4.9-2.5,4.8-5.2C61.2,32.9,56.8,26.6,50.4,24z"/>
	<path class="st3" d="M40.1,20.6c-5.8,0.9-10.9,4.3-14,9.2c-3.8,5.9-3.3,11-0.3,17.3c1.5,3.3,0.1,7.2-3.2,8.7
		c-1,0.5-2.1,0.7-3.1,0.6c-2.3-0.1-4.5-1.5-5.6-3.8C9,42.3,8.9,32.5,15,22.8c5.2-8.1,13.6-13.6,23.1-15.1c3.6-0.6,6.9,1.9,7.5,5.5
		C46.1,16.7,43.7,20,40.1,20.6z M13.6,8.7c-3.3-3-8.4-2.8-11.5,0.5c-3,3.3-2.8,8.4,0.5,11.5c3.3,3,8.4,2.8,11.5-0.5
		C17.1,16.9,16.9,11.7,13.6,8.7z"/>
</g>
</svg>
