<?xml version="1.0" encoding="utf-8"?>
<!-- Generator: Adobe Illustrator 21.1.0, SVG Export Plug-In . SVG Version: 6.00 Build 0)  -->
<svg version="1.1" id="Layer_1" xmlns="http://www.w3.org/2000/svg" xmlns:xlink="http://www.w3.org/1999/xlink" x="0px" y="0px"
	 viewBox="0 0 157.3 72.8" style="enable-background:new 0 0 157.3 72.8;" xml:space="preserve">
<style type="text/css">
	.st0{fill:url(#SVGID_1_);}
	.st1{fill:url(#SVGID_2_);}
	.st2{fill:url(#SVGID_3_);}
	.st3{fill:url(#SVGID_4_);}
	.st4{fill:url(#SVGID_5_);}
	.st5{fill:url(#SVGID_6_);}
	.st6{fill:url(#SVGID_7_);}
	.st7{fill:url(#SVGID_8_);}
	.st8{fill:url(#SVGID_9_);}
	.st9{fill:url(#SVGID_10_);}
	.st10{fill:url(#SVGID_11_);}
	.st11{fill:url(#SVGID_12_);}
	.st12{fill:url(#SVGID_13_);}
	.st13{fill:url(#SVGID_14_);}
	.st14{fill:url(#SVGID_15_);}
</style>
<g>
	
		<linearGradient id="SVGID_1_" gradientUnits="userSpaceOnUse" x1="14.4202" y1="107.8437" x2="65.534" y2="120.7924" gradientTransform="matrix(0.9976 6.980000e-02 -6.980000e-02 0.9976 11.4069 -92.6981)">
		<stop  offset="0" style="stop-color:#EB008B"/>
		<stop  offset="1" style="stop-color:#FAAD48"/>
	</linearGradient>
	<path class="st0" d="M26.5,10.1c4.2-1.5,9-1.9,13.3-0.8c5.9,1.4,9.2,5.8,13.8,9.2c1.6,1.2,8.6,3.7,6.9-0.7c-1.5-3.8-5.1-7-8.3-9.3
		c-5.1-3.6-10.4-4.9-16.7-4.9C30.7,3.4,26.3,4.9,22,6.6C17.8,8.3,0,9.8,1,1.4C-0.7,15.6,5,32.6,20.4,36.4c5,1.3,9.4,1.6,13.2-2.1
		C41,27.1,33.8,14.2,26.5,10.1"/>
	<linearGradient id="SVGID_2_" gradientUnits="userSpaceOnUse" x1="20.7152" y1="8.0945" x2="71.8211" y2="21.0412">
		<stop  offset="0" style="stop-color:#EB008B"/>
		<stop  offset="1" style="stop-color:#FAAD48"/>
	</linearGradient>
	<circle class="st1" cx="38.2" cy="12.5" r="1.8"/>
	<linearGradient id="SVGID_3_" gradientUnits="userSpaceOnUse" x1="1.7552" y1="27.744" x2="81.7057" y2="47.9979">
		<stop  offset="0" style="stop-color:#EB008B"/>
		<stop  offset="1" style="stop-color:#FAAD48"/>
	</linearGradient>
	<path class="st2" d="M57.6,36.7c0.7,0,1.1,0.4,1,1.2l-2.4,13.9c-0.1,0.8-0.7,1.3-1.3,1.6c-1.7,0.9-4.3,1.6-7.9,1.6
		c-6.5,0-10.5-2.6-10.5-9.8c0-1.5,0.2-3.3,0.5-5.4c2-11.3,6.8-14.9,15.3-14.9c3,0,5.5,0.7,6.7,1.4c0.7,0.3,0.9,0.7,0.6,1.5l-1.2,3.1
		c-0.3,0.8-0.9,1-1.7,0.7c-0.8-0.3-2.3-0.7-4.3-0.7c-5.3,0-7.3,2.1-8.6,9.1c-0.3,1.8-0.5,3.2-0.5,4.3c0,3.7,1.7,4.9,5.1,4.9
		c0.9,0,1.8-0.2,2.3-0.4l1.2-6.9h-2.7c-0.8,0-1.2-0.4-1-1.1l0.5-2.9c0.1-0.7,0.5-1.2,1.3-1.2H57.6z"/>
	<linearGradient id="SVGID_4_" gradientUnits="userSpaceOnUse" x1="2.618" y1="24.3428" x2="82.5643" y2="44.5957">
		<stop  offset="0" style="stop-color:#EB008B"/>
		<stop  offset="1" style="stop-color:#FAAD48"/>
	</linearGradient>
	<path class="st3" d="M64.8,53.4c-0.2,0.7-0.5,1.1-1.2,1.1h-4.1c-0.7,0-1.1-0.3-1-1.1l4.8-27.1c0.1-0.7,0.5-1.1,1.2-1.1h4.1
		c0.7,0,1.1,0.3,1,1.1L64.8,53.4z"/>
	<linearGradient id="SVGID_5_" gradientUnits="userSpaceOnUse" x1="2.6556" y1="24.2308" x2="82.5938" y2="44.4816">
		<stop  offset="0" style="stop-color:#EB008B"/>
		<stop  offset="1" style="stop-color:#FAAD48"/>
	</linearGradient>
	<path class="st4" d="M67.9,46.9c0-1.1,0.1-2.3,0.3-3.7c1.4-8,5.1-11.6,11.3-11.6c5.2,0,8.3,2.5,8.3,8c0,1.1-0.1,2.3-0.3,3.6
		c-1.5,8-5.1,11.6-11.3,11.6C71,54.9,67.9,52.4,67.9,46.9z M81.2,43.3c0.2-1.5,0.4-2.5,0.4-3.4c0-2.2-0.9-3.1-2.5-3.1
		c-2.3,0-3.6,1.7-4.4,6.5c-0.3,1.4-0.4,2.5-0.4,3.4c0,2.2,0.9,3.1,2.5,3.1C79,49.8,80.3,48.1,81.2,43.3z"/>
	<linearGradient id="SVGID_6_" gradientUnits="userSpaceOnUse" x1="4.5843" y1="16.5228" x2="84.5423" y2="36.7786">
		<stop  offset="0" style="stop-color:#EB008B"/>
		<stop  offset="1" style="stop-color:#FAAD48"/>
	</linearGradient>
	<path class="st5" d="M88.8,54.5c-0.8,0-1.2-0.4-1-1.2l4.8-26.9c0.1-0.8,0.5-1.2,1.3-1.2h8.7c5.7,0,9.2,1.8,9.2,6.1
		c0,3.1-1.5,6.2-4.8,7.5c1.9,0.6,3.3,2.6,3.3,5.5c0,6.6-4.7,10.1-11.6,10.1H88.8z M98.8,49c2.9,0,4.8-1.5,4.8-4.5
		c0-1.7-1-2.4-3.5-2.4h-3.8l-1.2,7H98.8z M100.7,37c2.6,0,4.3-1.3,4.3-4.1c0-1.5-1-2.2-3.2-2.2h-3.4L97.2,37H100.7z"/>
	<linearGradient id="SVGID_7_" gradientUnits="userSpaceOnUse" x1="5.7755" y1="11.8829" x2="85.7204" y2="32.1353">
		<stop  offset="0" style="stop-color:#EB008B"/>
		<stop  offset="1" style="stop-color:#FAAD48"/>
	</linearGradient>
	<path class="st6" d="M117.2,53.4c-0.2,0.7-0.5,1.1-1.2,1.1h-4.1c-0.7,0-1.1-0.3-1-1.1l3.6-20.2c0.1-0.7,0.5-1.1,1.2-1.1h4.1
		c0.7,0,1,0.4,0.9,1.1L117.2,53.4z M121.5,29c-0.1,0.7-0.5,1.1-1.2,1.1H116c-0.7,0-1-0.3-0.9-1.1l0.5-2.5c0.1-0.7,0.5-1.1,1.2-1.1
		h4.3c0.7,0,1.1,0.4,0.9,1.1L121.5,29z"/>
	<linearGradient id="SVGID_8_" gradientUnits="userSpaceOnUse" x1="5.697" y1="12.2551" x2="85.6332" y2="32.5054">
		<stop  offset="0" style="stop-color:#EB008B"/>
		<stop  offset="1" style="stop-color:#FAAD48"/>
	</linearGradient>
	<path class="st7" d="M128.3,32.1c0.8,0,1,0.3,1,1l-0.2,2.3c1-1.7,3.1-3.6,5.7-3.6c0.8,0,1,0.3,0.9,1.1l-0.8,4.7
		c-0.2,0.7-0.5,1-1.1,1c-0.5,0-0.8-0.1-1.4-0.1c-2.4,0-4.1,2-4.6,4.8L126,53.4c-0.1,0.7-0.5,1.1-1.2,1.1h-4.1c-0.7,0-1.1-0.3-1-1.1
		l3.6-20.2c0.1-0.7,0.5-1.1,1.2-1.1H128.3z"/>
	<linearGradient id="SVGID_9_" gradientUnits="userSpaceOnUse" x1="7.6281" y1="4.6516" x2="87.5631" y2="24.9015">
		<stop  offset="0" style="stop-color:#EB008B"/>
		<stop  offset="1" style="stop-color:#FAAD48"/>
	</linearGradient>
	<path class="st8" d="M146.1,52.2c-1.2,1.6-3.4,2.8-5.8,2.8c-4.1,0-6.5-2.2-6.5-7.3c0-1.2,0.1-2.7,0.4-4.3c1.4-8,4.5-11.6,9.5-11.6
		c2.4,0,4.7,1.1,5.3,2.5l1.4-7.8c0.1-0.7,0.5-1.1,1.2-1.1h4.1c0.7,0,1.1,0.3,1,1.1l-4.8,27.1c-0.1,0.7-0.5,1.1-1.2,1.1H147
		c-0.8,0-1.1-0.3-1.1-0.9L146.1,52.2z M147.8,40.3c0-2.4-1-3.4-2.7-3.4c-2.3,0-3.6,1.7-4.5,6.5c-0.2,1.4-0.4,2.4-0.4,3.3
		c0,2.3,0.9,3.1,2.6,3.1c2.3,0,3.9-1.8,4.7-6.5C147.7,42.1,147.8,41.1,147.8,40.3z"/>
	<linearGradient id="SVGID_10_" gradientUnits="userSpaceOnUse" x1="-1.0503" y1="38.7981" x2="78.9007" y2="59.0521">
		<stop  offset="0" style="stop-color:#EB008B"/>
		<stop  offset="1" style="stop-color:#FAAD48"/>
	</linearGradient>
	<path class="st9" d="M100.8,67c0.4-0.1,0.6,0,0.6,0.4v1.2c0,0.4-0.2,0.5-0.5,0.7c-0.8,0.3-1.7,0.6-2.9,0.6c-3,0-4.7-1.3-4.7-4.1
		c0-0.5,0.1-1.1,0.2-1.8c0.7-3.9,2.5-5.7,5.6-5.7c2.5,0,3.8,1.3,3.8,3.7c0,0.5-0.1,1-0.2,1.6l-0.2,1.1c-0.1,0.4-0.3,0.6-0.7,0.6
		h-5.5c0,0.2,0,0.4,0,0.5c0,1.1,0.8,1.7,2.2,1.7C99.4,67.4,100.2,67.2,100.8,67z M96.7,63.2h3.3l0-0.2c0.1-0.4,0.1-0.8,0.1-1.1
		c0-0.9-0.4-1.4-1.2-1.4C97.8,60.5,97.1,61.3,96.7,63.2z"/>
	<linearGradient id="SVGID_11_" gradientUnits="userSpaceOnUse" x1="-0.4976" y1="36.6332" x2="79.4506" y2="56.8865">
		<stop  offset="0" style="stop-color:#EB008B"/>
		<stop  offset="1" style="stop-color:#FAAD48"/>
	</linearGradient>
	<path class="st10" d="M111.9,69.1c-0.1,0.4-0.2,0.5-0.6,0.5h-2c-0.4,0-0.5-0.2-0.5-0.5l1.1-6.4c0-0.2,0.1-0.5,0.1-0.7
		c0-0.6-0.3-1-1-1c-1.1,0-1.7,0.8-1.9,2.1l-1.1,6c-0.1,0.4-0.2,0.5-0.6,0.5h-2c-0.4,0-0.5-0.2-0.5-0.5l1.8-10.1
		c0.1-0.4,0.2-0.6,0.6-0.6h1.8c0.4,0,0.5,0.2,0.5,0.5l0,0.7c0.5-0.7,1.4-1.4,2.9-1.4c1.8,0,2.7,1,2.7,2.8c0,0.3,0,0.7-0.1,1.2
		L111.9,69.1z"/>
	<linearGradient id="SVGID_12_" gradientUnits="userSpaceOnUse" x1="0.1541" y1="33.9745" x2="80.116" y2="54.2312">
		<stop  offset="0" style="stop-color:#EB008B"/>
		<stop  offset="1" style="stop-color:#FAAD48"/>
	</linearGradient>
	<path class="st11" d="M121.1,67c0.4-0.1,0.6,0,0.6,0.4v1.2c0,0.4-0.2,0.5-0.5,0.7c-0.8,0.3-1.7,0.6-2.9,0.6c-3,0-4.7-1.3-4.7-4.1
		c0-0.5,0.1-1.1,0.2-1.8c0.7-3.9,2.5-5.7,5.6-5.7c2.5,0,3.8,1.3,3.8,3.7c0,0.5-0.1,1-0.2,1.6l-0.2,1.1c-0.1,0.4-0.3,0.6-0.7,0.6
		h-5.5c0,0.2,0,0.4,0,0.5c0,1.1,0.8,1.7,2.2,1.7C119.7,67.4,120.4,67.2,121.1,67z M116.9,63.2h3.2l0-0.2c0.1-0.4,0.1-0.8,0.1-1.1
		c0-0.9-0.4-1.4-1.2-1.4C118,60.5,117.4,61.3,116.9,63.2z"/>
	<linearGradient id="SVGID_13_" gradientUnits="userSpaceOnUse" x1="0.7208" y1="31.9231" x2="80.6527" y2="52.1722">
		<stop  offset="0" style="stop-color:#EB008B"/>
		<stop  offset="1" style="stop-color:#FAAD48"/>
	</linearGradient>
	<path class="st12" d="M127.4,58.4c0.4,0,0.5,0.2,0.5,0.5l-0.1,1.2c0.5-0.8,1.5-1.8,2.9-1.8c0.4,0,0.5,0.1,0.4,0.5l-0.4,2.3
		c-0.1,0.4-0.2,0.5-0.5,0.5c-0.2,0-0.4-0.1-0.7-0.1c-1.2,0-2.1,1-2.3,2.4l-0.9,5.1c-0.1,0.4-0.2,0.5-0.6,0.5h-2
		c-0.4,0-0.6-0.2-0.5-0.5l1.8-10.1c0.1-0.4,0.3-0.6,0.6-0.6H127.4z"/>
	<linearGradient id="SVGID_14_" gradientUnits="userSpaceOnUse" x1="0.9465" y1="30.9619" x2="80.8897" y2="51.2139">
		<stop  offset="0" style="stop-color:#EB008B"/>
		<stop  offset="1" style="stop-color:#FAAD48"/>
	</linearGradient>
	<path class="st13" d="M139.1,67.8c-0.5,2.9-2.2,4.2-5.4,4.2c-1.2,0-2.7-0.2-3.4-0.5c-0.3-0.1-0.4-0.3-0.3-0.7l0.5-1.3
		c0.1-0.4,0.4-0.5,0.7-0.4c0.5,0.2,1.4,0.4,2.4,0.4c1.5,0,2.3-0.6,2.5-1.9l0.1-0.7c-0.6,0.8-1.4,1.2-2.6,1.2c-1.9,0-3.2-1-3.2-3.2
		c0-0.5,0-1.1,0.2-1.8c0.6-3.6,2.2-5.1,4.4-5.1c1.3,0,2.2,0.6,2.5,1.4l0.2-0.7c0.1-0.3,0.3-0.5,0.6-0.5h1.8c0.4,0,0.5,0.2,0.4,0.6
		L139.1,67.8z M137,62.1c0-1-0.4-1.5-1.2-1.5c-1,0-1.6,0.8-2,2.7c-0.1,0.5-0.1,0.9-0.1,1.3c0,1,0.4,1.4,1.2,1.4c1,0,1.7-0.9,2-2.7
		C137,62.8,137,62.4,137,62.1z"/>
	<linearGradient id="SVGID_15_" gradientUnits="userSpaceOnUse" x1="1.5526" y1="28.7172" x2="81.4763" y2="48.9643">
		<stop  offset="0" style="stop-color:#EB008B"/>
		<stop  offset="1" style="stop-color:#FAAD48"/>
	</linearGradient>
	<path class="st14" d="M146.4,68.8c-1,2.3-1.8,3.3-4.4,3.3c-0.7,0-1.7-0.1-2.1-0.2c-0.3-0.1-0.4-0.2-0.4-0.5l0.3-1.5
		c0.1-0.4,0.3-0.5,0.6-0.5c0.3,0,0.5,0.1,1,0.1c0.8,0,1.1-0.5,1-1.2l-1.3-9.3c-0.1-0.4,0.1-0.6,0.5-0.6h2.1c0.4,0,0.6,0.2,0.6,0.5
		l0.3,4.9l0.1,2.4h0.1l0.8-2.4l1.8-4.9c0.1-0.4,0.3-0.5,0.7-0.5h2.2c0.4,0,0.5,0.2,0.4,0.6L146.4,68.8z"/>
</g>
</svg>
