<svg width="131" height="30" viewBox="0 0 131 30" fill="none" xmlns="http://www.w3.org/2000/svg">
<g clip-path="url(#clip0)">
<path fill-rule="evenodd" clip-rule="evenodd" d="M4.06654 2.66016C5.10097 2.66016 6.1354 3.06673 6.92788 3.85155C8.13918 5.05596 8.41559 6.60799 7.79692 8.13628C7.43016 9.06734 6.5504 9.85752 5.97308 10.8108C5.32302 11.8644 4.98842 12.7051 4.90419 14.5182V14.5442C4.98842 16.3543 5.32302 17.2027 5.97308 18.2432C6.5504 19.2072 7.43016 19.979 7.79692 20.9254C8.41559 22.4567 8.13918 23.9912 6.92788 25.2078C6.1354 25.9873 5.10097 26.3916 4.06654 26.3916H4.0474C3.0145 26.3916 1.98084 25.9873 1.18913 25.2078C-0.0229398 23.9912 -0.295521 22.4567 0.312427 20.9254C0.68378 19.979 1.5689 19.2072 2.15312 18.2432C2.79092 17.2027 3.12706 16.3543 3.21281 14.5442V14.5182C3.12706 12.7051 2.79092 11.8644 2.15312 10.8108C1.5689 9.85752 0.68378 9.06734 0.312427 8.13628C-0.295521 6.60799 -0.0229398 5.05596 1.18913 3.85155C1.98084 3.06673 3.0145 2.66016 4.0474 2.66016H4.06654Z" fill="#59E0FF"/>
<path fill-rule="evenodd" clip-rule="evenodd" d="M8.97318 11.6719C10.5543 10.0846 13.1277 10.0846 14.7142 11.6642C16.303 13.2515 16.303 15.8341 14.7142 17.4221C13.1277 19.0124 10.5543 19.0124 8.97318 17.4221C7.38134 15.8341 7.38134 13.2515 8.97318 11.6719Z" fill="#59E0FF"/>
<path fill-rule="evenodd" clip-rule="evenodd" d="M19.6345 2.66016C20.6712 2.66016 21.7057 3.06673 22.4928 3.85155C23.7003 5.05596 23.9797 6.60799 23.3725 8.13628C22.9981 9.06734 22.1161 9.85752 21.5265 10.8108C20.894 11.8644 20.561 12.7051 20.4645 14.5182V14.5442C20.561 16.3543 20.894 17.2027 21.5265 18.2432C22.1161 19.2072 22.9981 19.979 23.3725 20.9254C23.9797 22.4567 23.7003 23.9912 22.4928 25.2078C21.711 25.9873 20.6712 26.3916 19.6345 26.3916H19.6131C18.5809 26.3916 17.5396 25.9873 16.7517 25.2078C15.545 23.9912 15.2732 22.4567 15.8796 20.9254C16.2471 19.979 17.1369 19.2072 17.7211 18.2432C18.3558 17.2027 18.6889 16.3543 18.7808 14.5442V14.5182C18.6889 12.7051 18.3558 11.8644 17.7211 10.8108C17.1369 9.85752 16.2471 9.06734 15.8796 8.13628C15.2732 6.60799 15.545 5.05596 16.7517 3.85155C17.5396 3.06673 18.5809 2.66016 19.6131 2.66016H19.6345Z" fill="#59E0FF"/>
<path fill-rule="evenodd" clip-rule="evenodd" d="M34.4385 2.9894L34.5848 4.08432C35.3252 3.27959 36.5418 2.66016 37.8022 2.66016C39.1222 2.66016 40.0111 3.27959 40.4445 4.10346C41.3503 3.2168 42.5256 2.66016 43.8694 2.66016C46.0133 2.66016 47.1082 3.83547 47.1082 6.37293V12.9968H45.2308V6.74504C45.2308 5.87753 45.1274 5.363 44.8158 4.99318C44.5485 4.66164 44.1136 4.43423 43.3556 4.43423C42.5486 4.43423 41.5969 4.84846 40.8541 5.67539C40.8978 6.04215 40.8978 6.47706 40.8978 6.89052V12.9968H39.0188V6.84765C39.0188 5.44492 38.8144 4.43423 37.306 4.43423C36.3987 4.43423 35.391 4.99318 34.7264 5.77263V12.9968H32.8521V2.9894H34.4385Z" fill="#364040"/>
<path fill-rule="evenodd" clip-rule="evenodd" d="M51.0681 8.00351C51.0681 10.5188 51.915 11.7408 53.7319 11.7408C55.545 11.7408 56.3697 10.5188 56.3697 8.00351C56.3697 5.46452 55.545 4.24786 53.7319 4.24786C51.915 4.24786 51.0681 5.46452 51.0681 8.00351ZM49.104 7.96073C49.104 4.57567 50.6323 2.65918 53.7057 2.65918C56.8044 2.65918 58.3289 4.55729 58.3289 7.94312V8.02887C58.3289 11.4093 56.8044 13.3297 53.7057 13.3297C50.6323 13.3297 49.104 11.4093 49.104 8.02887V7.96073Z" fill="#364040"/>
<path fill-rule="evenodd" clip-rule="evenodd" d="M61.8778 2.9894L62.0202 4.08432C62.7652 3.27959 63.9834 2.66016 65.2414 2.66016C66.5614 2.66016 67.4488 3.27959 67.8837 4.10346C68.788 3.2168 69.9695 2.66016 71.3071 2.66016C73.451 2.66016 74.5459 3.83547 74.5459 6.37293V12.9968H72.6685V6.74504C72.6685 5.87753 72.562 5.363 72.2542 4.99318C71.9878 4.66164 71.5552 4.43423 70.7926 4.43423C69.9848 4.43423 69.0376 4.84846 68.2926 5.67539C68.337 6.04215 68.337 6.47706 68.337 6.89052V12.9968H66.4573V6.84765C66.4573 5.44492 66.2513 4.43423 64.746 4.43423C63.8394 4.43423 62.828 4.99318 62.1649 5.77263V12.9968H60.2905V2.9894H61.8778Z" fill="#364040"/>
<path fill-rule="evenodd" clip-rule="evenodd" d="M83.2913 7.3634C83.2285 5.50587 82.6535 4.24786 81.0203 4.24786C79.2692 4.24786 78.5679 5.67662 78.5036 7.3634H83.2913ZM76.5439 8.00437C76.5439 5.11547 77.9283 2.65918 81.0423 2.65918C83.9098 2.65918 85.2298 4.53662 85.2298 8.02887C85.2298 8.27389 85.2298 8.51967 85.2076 8.76928H78.5255C78.671 10.6452 79.5561 11.7164 81.4565 11.7164C82.4871 11.7164 83.6847 11.4683 84.4488 11.1406L84.6111 12.6658C83.7046 13.0992 82.5262 13.3266 81.4114 13.3266C78.194 13.3266 76.5439 11.5724 76.5439 8.04495V8.00437Z" fill="#364040"/>
<path fill-rule="evenodd" clip-rule="evenodd" d="M88.8181 2.9894L88.9644 4.14634C89.7898 3.2995 91.0485 2.66016 92.4719 2.66016C93.5454 2.66016 94.3501 2.94729 94.8853 3.50317C95.504 4.12566 95.7314 5.01308 95.7314 6.4985V12.9968H93.8524V6.78792C93.8524 5.83695 93.7506 5.30098 93.4229 4.90742C93.1113 4.57818 92.6404 4.41279 91.9566 4.41279C90.9865 4.41279 89.8311 4.90742 89.0685 5.75579V12.9968H87.188V2.9894H88.8181Z" fill="#364040"/>
<mask id="mask0" mask-type="alpha" maskUnits="userSpaceOnUse" x="97" y="0" width="7" height="14">
<path fill-rule="evenodd" clip-rule="evenodd" d="M103.259 0H97.3818L97.3818 13.3257H103.259V0Z" fill="white"/>
</mask>
<g mask="url(#mask0)">
<path fill-rule="evenodd" clip-rule="evenodd" d="M100.742 0V2.98997H103.2L103.095 4.51673H100.742V9.75779C100.742 11.4277 101.176 11.8006 102.311 11.8006C102.618 11.8006 102.993 11.7585 103.223 11.7179L103.259 13.201C102.892 13.2853 102.311 13.3258 102.065 13.3258C99.5694 13.3258 98.8672 12.2133 98.8672 9.94232V4.51673H97.3818V2.98997H98.8672V0.267987L100.742 0Z" fill="#364040"/>
</g>
<path fill-rule="evenodd" clip-rule="evenodd" d="M107.181 2.99023V8.62485C107.181 9.6991 107.223 10.1692 107.388 10.6447C107.675 11.467 108.502 11.7404 109.449 11.7404C110.422 11.7404 111.225 11.467 111.511 10.6447C111.679 10.1692 111.72 9.6991 111.72 8.62485V2.99023H113.599V8.87217C113.599 12.1301 112.505 13.3261 109.449 13.3261C106.416 13.3261 105.303 12.1301 105.303 8.87217V2.99023H107.181Z" fill="#364040"/>
<mask id="mask1" mask-type="alpha" maskUnits="userSpaceOnUse" x="115" y="2" width="16" height="11">
<path fill-rule="evenodd" clip-rule="evenodd" d="M130.226 12.9968V2.66016H115.969V12.9968H130.226Z" fill="white"/>
</mask>
<g mask="url(#mask1)">
<path fill-rule="evenodd" clip-rule="evenodd" d="M117.559 2.9894L117.702 4.08432C118.444 3.27959 119.662 2.66016 120.92 2.66016C122.241 2.66016 123.126 3.27959 123.561 4.10346C124.466 3.2168 125.644 2.66016 126.987 2.66016C129.133 2.66016 130.226 3.83547 130.226 6.37293V12.9968H128.346V6.74504C128.346 5.87753 128.246 5.363 127.934 4.99318C127.666 4.66164 127.233 4.43423 126.471 4.43423C125.667 4.43423 124.718 4.84846 123.975 5.67539C124.015 6.04215 124.015 6.47706 124.015 6.89052V12.9968H122.138V6.84765C122.138 5.44492 121.929 4.43423 120.425 4.43423C119.517 4.43423 118.507 4.99318 117.847 5.77263V12.9968H115.969V2.9894H117.559Z" fill="#364040"/>
</g>
<path fill-rule="evenodd" clip-rule="evenodd" d="M38.514 21.7113C38.4612 20.1661 37.9819 19.1187 36.6266 19.1187C35.1665 19.1187 34.5846 20.3055 34.5356 21.7113H38.514ZM32.9062 22.2441C32.9062 19.8437 34.0525 17.7979 36.6405 17.7979C39.0255 17.7979 40.1228 19.3621 40.1228 22.2595C40.1228 22.4654 40.1228 22.6744 40.109 22.8735H34.5486C34.6681 24.4355 35.4077 25.3313 36.9873 25.3313C37.8441 25.3313 38.8418 25.1239 39.4712 24.8482L39.6143 26.12C38.8571 26.4806 37.8763 26.6743 36.9513 26.6743C34.2753 26.6743 32.9062 25.2119 32.9062 22.2786V22.2441Z" fill="#364040"/>
<path fill-rule="evenodd" clip-rule="evenodd" d="M43.2864 18.0735L43.3982 19.0321C44.0888 18.3354 45.1324 17.7979 46.3215 17.7979C47.2135 17.7979 47.8789 18.0398 48.3291 18.5023C48.8391 19.0191 49.0282 19.7549 49.0282 20.9915V26.3918H47.4708V21.2327C47.4708 20.4417 47.3805 19.9984 47.1117 19.6646C46.8552 19.3958 46.4609 19.2572 45.8912 19.2572C45.085 19.2572 44.1248 19.6646 43.4901 20.3759V26.3918H41.9258V18.0735H43.2864Z" fill="#364040"/>
<path fill-rule="evenodd" clip-rule="evenodd" d="M56.4266 21.7113C56.3738 20.1661 55.8929 19.1187 54.543 19.1187C53.0821 19.1187 52.4956 20.3055 52.4443 21.7113H56.4266ZM50.8174 22.2441C50.8174 19.8437 51.969 17.7979 54.5562 17.7979C56.9405 17.7979 58.0385 19.3621 58.0385 22.2595C58.0385 22.4654 58.0385 22.6744 58.0232 22.8735H52.4621C52.5846 24.4355 53.3204 25.3313 54.8984 25.3313C55.7606 25.3313 56.7552 25.1239 57.3892 24.8482L57.527 26.12C56.7721 26.4806 55.7912 26.6743 54.8625 26.6743C52.1895 26.6743 50.8174 25.2119 50.8174 22.2786V22.2441Z" fill="#364040"/>
<path fill-rule="evenodd" clip-rule="evenodd" d="M61.1971 18.0739C61.3334 19.2216 61.3158 19.2216 61.3334 19.2216C61.9008 18.5027 62.8426 17.9376 64.0079 17.8848C64.0079 18.1436 63.9903 19.2079 63.9903 19.4644C62.9161 19.4797 62.0034 19.91 61.3977 20.5087V26.3922H59.8403V18.0739H61.1971Z" fill="#364040"/>
<mask id="mask2" mask-type="alpha" maskUnits="userSpaceOnUse" x="65" y="17" width="8" height="13">
<path fill-rule="evenodd" clip-rule="evenodd" d="M65.2114 29.9995H72.7794V17.3369H65.2114V29.9995H65.2114Z" fill="white"/>
</mask>
<g mask="url(#mask2)">
<path fill-rule="evenodd" clip-rule="evenodd" d="M67.3041 26.3102C66.9948 26.6502 66.8401 27.1196 66.8401 27.579C66.8401 28.3163 67.3891 28.8163 68.7291 28.8163C69.9802 28.8163 70.8087 28.3538 70.8087 27.4595C70.8087 27.1196 70.7367 26.8577 70.4273 26.664C70.1724 26.4802 69.6219 26.3922 68.6778 26.3577L67.3041 26.3102ZM68.5897 22.4805C69.8799 22.4805 70.363 21.933 70.363 20.7347C70.363 19.551 69.8799 18.9852 68.5897 18.9852C67.3401 18.9852 66.8401 19.551 66.8401 20.7347C66.8401 21.933 67.3401 22.4805 68.5897 22.4805ZM65.2114 20.6982C65.2114 18.709 66.6517 17.7979 68.5904 17.7979C69.5222 17.7979 70.2565 18.0015 70.8943 18.3997C71.1508 18.075 71.7342 17.4747 72.7794 17.3369V18.8147C72.4019 18.8499 71.9019 18.9318 71.5627 19.1355C71.833 19.5505 71.9892 20.0604 71.9892 20.6982V20.7863C71.9892 22.8919 70.3974 23.6637 68.5904 23.6637C68.2144 23.6637 67.866 23.6315 67.5069 23.5481C67.3232 23.9577 67.1011 24.4914 66.9648 24.9018L68.9158 24.95C70.173 24.9837 71.0099 25.1744 71.4907 25.5549C71.957 25.8987 72.261 26.4967 72.261 27.2517C72.261 29.1391 70.6546 29.9997 68.5904 29.9997C66.4817 29.9997 65.3508 29.1904 65.3508 27.9048C65.3508 27.306 65.6195 26.6636 66.1211 26.2081C65.5912 26.1874 65.314 25.8643 65.314 25.4531C65.314 24.95 65.9817 23.8896 66.497 23.2012C65.7114 22.7571 65.2114 21.9325 65.2114 20.7863V20.6982Z" fill="#364040"/>
</g>
<path fill-rule="evenodd" clip-rule="evenodd" d="M75.6955 18.0732V22.9629C75.6955 24.3893 76.1442 25.0179 77.3746 25.0179C78.0431 25.0179 78.8202 24.8212 79.4703 24.3541V18.0732H81.0292V24.1673C81.0292 24.766 81.0292 25.3617 81.0116 25.9329C80.945 28.4558 79.9174 29.9964 76.8126 29.9964C76.5048 29.9964 76.0087 29.9489 75.609 29.8777L75.7139 28.6733C75.9719 28.7108 76.3486 28.7483 76.638 28.7483C78.406 28.7483 79.4703 28.2146 79.4703 26.1534V25.7116C78.7306 26.2254 77.8938 26.4804 76.9826 26.4804C75.2315 26.4804 74.1343 25.5554 74.1343 23.1673V18.0732H75.6955Z" fill="#364040"/>
</g>
<defs>
<clipPath id="clip0">
<rect width="130.226" height="29.9998" fill="white"/>
</clipPath>
</defs>
</svg>
