<svg width="226" height="42" viewBox="0 0 226 42" fill="none" xmlns="http://www.w3.org/2000/svg">
<g clip-path="url(#clip0_1123_3187)">
<path d="M85.0734 31.5082V29.9038C83.7582 31.1598 82.0406 31.8712 80.2476 31.9006C76.2818 31.9006 74.5684 28.9876 74.5684 25.6821V13.7828H80.3423V24.3068C80.3423 25.5187 80.7698 26.6295 82.5352 26.6295C83.868 26.6295 85.0743 25.8446 85.0743 24.0121V13.8009H90.8692V31.5082H85.0743H85.0734ZM105.639 31.5082V29.8554C104.994 30.5089 104.23 31.025 103.391 31.3733C102.552 31.7217 101.655 31.8963 100.751 31.8876C95.9599 31.8876 92.9765 27.8595 92.9765 22.6593C92.9765 17.4591 95.9683 13.431 100.751 13.431C101.653 13.4145 102.549 13.5822 103.389 13.9254C104.228 14.2677 104.993 14.7786 105.639 15.4277V8.14258H111.448V31.5004L105.639 31.509V31.5082ZM102.305 18.5162C100.118 18.5162 99.1008 20.4776 99.1008 22.7034C99.1008 24.9292 100.118 26.7929 102.305 26.7929C104.493 26.7929 105.639 24.9638 105.639 22.7034C105.639 20.443 104.528 18.5162 102.305 18.5162ZM122.841 31.9006C117.127 31.9006 113.438 28.3004 113.438 22.7034C113.438 17.1064 117.118 13.4483 122.841 13.4483C128.564 13.4483 132.243 17.0796 132.243 22.7034C132.243 28.3272 128.559 31.9006 122.841 31.9006ZM122.841 18.3529C120.704 18.3529 119.601 20.0851 119.601 22.6714C119.601 25.2577 120.713 26.9554 122.841 26.9554C124.969 26.9554 126.076 25.2542 126.076 22.6714C126.076 20.0886 124.999 18.3529 122.841 18.3529ZM141.564 31.9006C137.44 31.9006 134.359 30.4596 132.709 27.1231L137.376 25.4219C138.329 27.0219 139.786 27.7091 141.944 27.7091C143.15 27.7091 144.133 27.2199 144.133 26.3339C144.133 25.3199 142.991 25.0113 140.962 24.7339C137.282 24.293 133.632 23.4122 133.632 19.2034C133.632 15.3076 136.996 13.4431 141.325 13.4431C145.171 13.4431 147.893 14.9808 149.637 17.5325L145.448 19.4939C144.936 18.8594 144.288 18.3546 143.556 18.0201C142.824 17.6855 142.026 17.5291 141.226 17.5637C140.243 17.5637 139.354 17.925 139.354 18.811C139.354 19.697 140.337 20.0186 142.243 20.2476C147.098 20.838 149.83 22.2133 149.83 25.8757C149.83 29.5382 146.906 31.9006 141.577 31.9006H141.564H141.564ZM72.5432 29.8554L70.321 27.5017C71.6873 25.4245 72.3881 22.9592 72.3252 20.4508C72.3252 13.5624 67.9998 8.94388 61.2896 8.94388C54.5793 8.94388 50.2673 13.5805 50.2673 20.468C50.2673 27.3556 54.5886 31.8997 61.298 31.8997C63.1606 31.9282 65.0047 31.5151 66.6871 30.6922L69.1399 33.2879L72.5423 29.8546L72.5432 29.8554ZM61.2904 26.4618C58.1025 26.4618 56.0932 23.8574 56.0932 20.4326C56.0932 17.0079 58.1017 14.3637 61.2904 14.3637C64.4791 14.3637 66.5086 17.0079 66.5086 20.4326C66.5144 21.31 66.3703 22.1813 66.0811 23.0059L63.6107 20.3928L60.1915 23.8219L62.5377 26.3295C62.1278 26.4263 61.7095 26.4748 61.2896 26.4748" fill="black"/>
<path d="M168.314 31.483H158.412V9.67676H167.814C171.019 9.67676 173.524 11.5058 173.524 14.7802C173.511 15.7526 173.25 16.7035 172.764 17.5376C172.279 18.3717 171.589 19.0581 170.763 19.5266C171.877 19.9588 172.832 20.7411 173.493 21.7628C174.153 22.7845 174.487 23.9938 174.447 25.2204C174.447 28.6538 172.224 31.5002 168.322 31.5002L168.314 31.483ZM167.434 11.836H160.635V18.8869H167.425C169.613 18.8869 171.272 17.3794 171.272 15.0922C171.272 12.805 169.592 11.8533 167.425 11.8533L167.434 11.836ZM168.28 21.0159H160.635V29.3583H168.28C170.439 29.3583 172.089 27.7539 172.089 25.3034C172.089 22.8528 170.473 21.0151 168.28 21.0151V21.0159Z" fill="black"/>
<path d="M190.705 31.7664C189.15 31.7664 187.787 30.9158 187.594 28.8845C186.009 31.2426 183.85 31.8943 181.662 31.8943C178.585 31.8943 176.299 29.9641 176.299 26.9232C176.299 22.9305 179.568 22.1111 181.821 21.8154C184.812 21.423 187.436 21.2951 187.436 18.9681C187.436 16.91 185.299 16.2228 183.312 16.2228C181.49 16.2375 179.724 16.8814 178.299 18.0518L177.154 16.5002C178.897 15.0705 181.055 14.2865 183.283 14.2744C187.091 14.2744 189.565 15.9099 189.565 19.6423V27.9233C189.565 29.3599 189.946 29.9814 191.057 29.9814C191.394 29.984 191.727 29.9183 192.04 29.7878L192.327 31.52C191.804 31.699 191.257 31.7889 190.707 31.7845V31.7673L190.705 31.7664ZM187.534 21.6702C186.423 23.1112 185.025 23.208 182.2 23.6359C180.013 23.9617 178.427 24.6187 178.427 26.7779C178.427 29.0652 180.136 29.9823 182.17 29.9823C184.867 29.9823 187.533 28.5456 187.533 24.91V21.6711L187.534 21.6702Z" fill="black"/>
<path d="M194.263 31.4865V14.6515H196.293V17.7365C197.69 15.4804 199.712 14.2686 202.007 14.2686C206.097 14.2686 207.939 17.1816 207.939 20.7472V31.4874H205.909V21.4258C205.909 18.3407 204.797 16.2912 201.686 16.2912C198.767 16.2912 196.293 18.7418 196.293 22.2452V31.5004L194.263 31.4874V31.4865Z" fill="black"/>
<path d="M225.998 31.5018L217.117 22.3046L224.844 14.4861H222.147L213.039 23.9789V8.13965H211.006V31.5018H213.039V26.4952L215.715 23.7412L223.301 31.5018H225.998Z" fill="black"/>
<path d="M23.8931 31.3527C21.5443 32.2439 18.9708 32.282 16.5985 31.4599C14.2263 30.6387 12.1969 29.0059 10.8464 26.8337C9.49599 24.6614 8.90502 22.0786 9.17075 19.5122C9.43731 16.9458 10.5447 14.5505 12.31 12.7223C14.0762 10.8941 16.394 9.74103 18.8811 9.45578C21.3682 9.16966 23.8755 9.76869 25.9887 11.1517C28.1011 12.5348 29.693 14.6206 30.5002 17.0634C31.3074 19.5061 31.2815 22.1598 30.4281 24.5854L37.197 31.5654C39.7764 27.2408 40.7253 22.0907 39.8644 17.0919C39.0035 12.0931 36.3923 7.59472 32.5271 4.45091C28.6611 1.30622 23.8109 -0.264391 18.8962 0.0364199C13.9815 0.337231 9.34511 2.48872 5.86801 6.08289C2.39009 9.6762 0.314561 14.4624 0.0329065 19.5303C-0.248748 24.5992 1.28526 29.5971 4.34239 33.5768C7.39951 37.5557 11.7677 40.2388 16.617 41.1153C21.4663 41.9918 26.459 41.002 30.6469 38.3328L23.8922 31.3527H23.8931Z" fill="#9671F1"/>
<path d="M24.2249 18.1378L23.4655 17.3555L16.8416 24.0338L33.4399 41.2985L33.5421 41.4048L40.1635 34.4248L24.2249 18.1378Z" fill="#4A2A99"/>
</g>
<defs>
<clipPath id="clip0_1123_3187">
<rect width="226" height="41.4263" fill="white"/>
</clipPath>
</defs>
</svg>
